<svg width="12" height="16" viewBox="0 0 12 16" fill="none" xmlns="http://www.w3.org/2000/svg">
<path fill-rule="evenodd" clip-rule="evenodd" d="M3.33333 9C3.33333 8.63181 3.63181 8.33333 4 8.33333H8C8.36818 8.33333 8.66666 8.63181 8.66666 9C8.66666 9.36819 8.36818 9.66667 8 9.66667H4C3.63181 9.66667 3.33333 9.36819 3.33333 9Z" fill="#424551"/>
<path fill-rule="evenodd" clip-rule="evenodd" d="M3.33333 11.5C3.33333 11.1318 3.63181 10.8333 4 10.8333H6C6.36819 10.8333 6.66666 11.1318 6.66666 11.5C6.66666 11.8682 6.36819 12.1667 6 12.1667H4C3.63181 12.1667 3.33333 11.8682 3.33333 11.5Z" fill="#424551"/>
<path fill-rule="evenodd" clip-rule="evenodd" d="M4.02861 1.0286C4.15363 0.903572 4.3232 0.833334 4.50001 0.833334H9.00001C10.4728 0.833334 11.6667 2.02724 11.6667 3.5L11.6667 12.5C11.6667 13.9728 10.4728 15.1667 9.00001 15.1667H2.99999C1.52723 15.1667 0.333325 13.9728 0.333328 12.5L0.333345 5C0.333345 4.82319 0.403583 4.65362 0.528607 4.5286L4.02861 1.0286ZM4.33332 2.6095V4.83333H2.10949L4.33332 2.6095ZM1.66668 6.16667L1.66666 12.5C1.66666 13.2364 2.26361 13.8333 2.99999 13.8333H9.00001C9.73639 13.8333 10.3333 13.2364 10.3333 12.5L10.3333 3.5C10.3333 2.76362 9.73639 2.16667 9.00001 2.16667H5.66666V5.5C5.66666 5.86819 5.36818 6.16667 4.99999 6.16667H1.66668Z" fill="#424551"/>
</svg>
