<svg width="16" height="16" viewBox="0 0 16 16" fill="none" xmlns="http://www.w3.org/2000/svg">
<path fill-rule="evenodd" clip-rule="evenodd" d="M4.99999 0.833328C5.36818 0.833328 5.66666 1.13181 5.66666 1.49999V1.83334L10.3333 1.83335V1.49999C10.3333 1.13181 10.6318 0.833328 11 0.833328C11.3682 0.833328 11.6667 1.1318 11.6667 1.49999V1.83335L12.5 1.83335C13.9728 1.83335 15.1667 3.02726 15.1667 4.50002V12.5C15.1667 13.9728 13.9728 15.1667 12.5 15.1667L3.49999 15.1667C2.02723 15.1667 0.833328 13.9728 0.833328 12.5L0.833329 6.00012L0.833329 4.5C0.833329 3.02724 2.02724 1.83333 3.5 1.83333L4.33333 1.83333V1.49999C4.33333 1.13181 4.6318 0.833328 4.99999 0.833328ZM4.33333 3.16667L3.5 3.16667C2.76362 3.16666 2.16666 3.76362 2.16666 4.5V5.33333H13.8333V4.50002C13.8333 3.76364 13.2364 3.16668 12.5 3.16668L11.6667 3.16668V3.49999C11.6667 3.86818 11.3682 4.16666 11 4.16666C10.6318 4.16666 10.3333 3.86819 10.3333 3.5V3.16668L5.66666 3.16667V3.49999C5.66666 3.86818 5.36818 4.16666 4.99999 4.16666C4.6318 4.16666 4.33333 3.86818 4.33333 3.49999V3.16667ZM13.8333 6.66666H2.16666L2.16666 12.5C2.16666 13.2364 2.76361 13.8333 3.49999 13.8333L12.5 13.8333C13.2364 13.8333 13.8333 13.2364 13.8333 12.5V6.66666Z" fill="#787A80"/>
</svg>
