<svg width="130" height="22" viewBox="0 0 130 22" fill="none" xmlns="http://www.w3.org/2000/svg">
<g clip-path="url(#clip0_1_697)">
<path d="M-0.000213623 11.1C-0.000213623 4.99999 3.29979 1.29999 8.69979 1.29999C12.7998 1.29999 16.0998 3.79999 16.6998 7.49999C16.7998 7.89999 16.4998 8.19999 16.0998 8.19999H13.4998C13.1998 8.19999 12.9998 7.99999 12.8998 7.69999C12.3998 5.79999 10.7998 4.59999 8.69979 4.59999C5.79979 4.59999 3.99979 7.09999 3.99979 11.1C3.99979 15.1 5.79979 17.6 8.79979 17.6C10.8998 17.6 12.3998 16.5 12.9998 14.7C13.0998 14.4 13.2998 14.2 13.5998 14.2H16.1998C16.5998 14.2 16.8998 14.6 16.7998 14.9C16.1998 18.5 12.9998 20.9 8.79979 20.9C3.29979 20.9 -0.000213623 17.1 -0.000213623 11.1Z" fill="#1E212C"/>
<path d="M24.2994 20.4002H21.3994C21.0994 20.4002 20.8994 20.2002 20.8994 19.9002V2.60024C20.8994 2.20024 21.2994 1.80024 21.6994 1.80024H28.6994C32.7994 1.80024 35.2994 4.10024 35.2994 7.70024C35.2994 9.80024 34.2994 11.7002 32.5994 12.7002C32.1994 12.9002 32.0994 13.4002 32.2994 13.7002L35.3994 19.6002C35.5994 19.9002 35.2994 20.3002 34.9994 20.3002H31.6994C31.4994 20.3002 31.2994 20.2002 31.1994 20.0002L28.2994 14.0002C28.1994 13.7002 27.8994 13.6002 27.5994 13.6002H25.2994C24.9994 13.6002 24.7994 13.8002 24.7994 14.1002V20.0002C24.8994 20.2002 24.5994 20.4002 24.2994 20.4002ZM24.8994 10.2002C24.8994 10.5002 25.0994 10.7002 25.3994 10.7002H28.3994C30.3994 10.7002 31.4994 9.60024 31.4994 7.80024C31.4994 6.00024 30.2994 4.90024 28.3994 4.90024H25.4994C25.1994 4.90024 24.9994 5.10024 24.9994 5.40024V10.2002H24.8994Z" fill="#1E212C"/>
<path d="M51.4996 20.4002H40.4996C40.0996 20.4002 39.7996 20.1002 39.7996 19.7002V2.50024C39.7996 2.10024 40.0996 1.80024 40.4996 1.80024H51.4996C51.8996 1.80024 52.1996 2.10024 52.1996 2.50024V4.40024C52.1996 4.80024 51.8996 5.10024 51.4996 5.10024H44.1996C43.8996 5.10024 43.6996 5.30024 43.6996 5.60024V9.00024C43.6996 9.30024 43.8996 9.50024 44.1996 9.50024H50.9996C51.3996 9.50024 51.6996 9.80024 51.6996 10.2002V11.9002C51.6996 12.3002 51.3996 12.6002 50.9996 12.6002H44.1996C43.8996 12.6002 43.6996 12.8002 43.6996 13.1002V16.9002C43.6996 17.2002 43.8996 17.4002 44.1996 17.4002H51.4996C51.8996 17.4002 52.1996 17.7002 52.1996 18.1002V20.0002C52.1996 20.1002 51.8996 20.4002 51.4996 20.4002Z" fill="#1E212C"/>
<path d="M66.9997 15.9002H61.2997C60.9997 15.9002 60.7997 16.1002 60.6997 16.3002L59.5997 20.0002C59.4997 20.3002 59.2997 20.4002 58.9997 20.4002H56.3997C55.9997 20.4002 55.6997 20.0002 55.7997 19.6002L61.7997 2.20024C61.8997 2.00024 62.0997 1.80024 62.3997 1.80024H66.0997C66.3997 1.80024 66.5997 2.00024 66.6997 2.20024L72.6997 19.6002C72.7997 20.0002 72.4997 20.4002 72.0997 20.4002H69.1997C68.8997 20.4002 68.6997 20.2002 68.5997 20.0002L67.4997 16.3002C67.4997 16.1002 67.1997 15.9002 66.9997 15.9002ZM62.0997 13.0002H66.1997C66.3997 13.0002 66.4997 12.8002 66.4997 12.6002L64.2997 5.60024H64.0997L61.8997 12.6002C61.7997 12.8002 61.8997 13.0002 62.0997 13.0002Z" fill="#1E212C"/>
<path d="M78.9999 19.7006V5.50063C78.9999 5.20063 78.7999 5.00063 78.4999 5.00063H74.0999C73.6999 5.00063 73.2999 4.70063 73.2999 4.20063V2.50063C73.2999 2.10063 73.5999 1.70063 74.0999 1.70063H87.6999C88.0999 1.70063 88.4999 2.00063 88.4999 2.50063V4.20063C88.4999 4.60063 88.1999 5.00063 87.6999 5.00063H83.2999C82.9999 5.00063 82.7999 5.20063 82.7999 5.50063V19.8006C82.7999 20.2006 82.4999 20.5006 82.0999 20.5006H79.5999C79.2999 20.4006 78.9999 20.1006 78.9999 19.7006Z" fill="#1E212C"/>
<path d="M103.8 20.4002H92.7997C92.3997 20.4002 92.0996 20.1002 92.0996 19.7002V2.50024C92.0996 2.10024 92.3997 1.80024 92.7997 1.80024H103.8C104.2 1.80024 104.5 2.10024 104.5 2.50024V4.40024C104.5 4.80024 104.2 5.10024 103.8 5.10024H96.4996C96.1996 5.10024 95.9996 5.30024 95.9996 5.60024V9.00024C95.9996 9.30024 96.1996 9.50024 96.4996 9.50024H103.3C103.7 9.50024 104 9.80024 104 10.2002V11.9002C104 12.3002 103.7 12.6002 103.3 12.6002H96.4996C96.1996 12.6002 95.9996 12.8002 95.9996 13.1002V16.9002C95.9996 17.2002 96.1996 17.4002 96.4996 17.4002H103.8C104.2 17.4002 104.5 17.7002 104.5 18.1002V20.0002C104.5 20.1002 104.2 20.4002 103.8 20.4002Z" fill="#1E212C"/>
<path d="M117.7 9.70044L111.5 1.60044C111.1 1.20044 110.6 1.00044 110.1 1.00044C109.6 1.00044 109.1 1.20044 108.7 1.60044C108 2.40044 108 3.60044 108.7 4.40044L113.6 11.0004L108.7 17.6004C108 18.4004 108 19.6004 108.7 20.4004C109.1 20.8004 109.6 21.0004 110.1 21.0004C110.6 21.0004 111.1 20.8004 111.5 20.4004L117.7 12.3004C118.4 11.7004 118.4 10.5004 117.7 9.70044Z" fill="#FF3F3A"/>
<path d="M120.343 9.70044L126.543 1.60044C126.943 1.20044 127.443 1.00044 127.943 1.00044C128.443 1.00044 128.943 1.20044 129.343 1.60044C130.043 2.40044 130.043 3.60044 129.343 4.40044L124.443 11.0004L129.343 17.6004C130.043 18.4004 130.043 19.6004 129.343 20.4004C128.943 20.8004 128.443 21.0004 127.943 21.0004C127.443 21.0004 126.943 20.8004 126.543 20.4004L120.343 12.3004C119.643 11.7004 119.643 10.5004 120.343 9.70044Z" fill="#FF3F3A"/>
</g>
<defs>
<clipPath id="clip0_1_697">
<rect width="130" height="22" fill="white"/>
</clipPath>
</defs>
</svg>
